<?xml version="1.0" encoding="UTF-8" standalone="no"?>
<svg width="26px" height="15px" viewBox="0 0 26 15" version="1.1" xmlns="http://www.w3.org/2000/svg" xmlns:xlink="http://www.w3.org/1999/xlink">
    <!-- Generator: Sketch 40.3 (33839) - http://www.bohemiancoding.com/sketch -->
    <title>Shape</title>
    <desc>Created with Sketch.</desc>
    <defs></defs>
    <g id="Page-1" stroke="none" stroke-width="1" fill="none" fill-rule="evenodd">
        <g id="H5首页" transform="translate(-560.000000, -828.000000)" fill="#ABABAB">
            <g id="Group-5" transform="translate(30.000000, 601.000000)">
                <path d="M543,227 C537.490234,227 532.666016,229.945312 530,234.363281 C532.666016,238.78125 537.490234,241.701172 543,241.701172 C548.509766,241.701172 553.333984,238.755859 556,234.363281 C553.333984,229.945312 548.509766,227 543,227 L543,227 Z M543.050781,239.441406 C540.232422,239.441406 537.972656,237.15625 537.972656,234.363281 C537.972656,231.570312 540.257812,229.285156 543.050781,229.285156 C545.84375,229.285156 548.128906,231.570312 548.128906,234.363281 C548.128906,237.15625 545.869141,239.441406 543.050781,239.441406 L543.050781,239.441406 Z M543.050781,237.740234 C544.929688,237.740234 546.453125,236.242188 546.453125,234.363281 C546.453125,232.484375 544.929688,230.960938 543.050781,230.960938 C541.171875,230.960938 539.648438,232.484375 539.648438,234.363281 C539.673828,236.242188 541.171875,237.740234 543.050781,237.740234 L543.050781,237.740234 Z" id="Shape"></path>
            </g>
        </g>
    </g>
</svg>