<?xml version="1.0" encoding="UTF-8" standalone="no"?>
<svg width="210px" height="130px" viewBox="0 0 210 130" version="1.1" xmlns="http://www.w3.org/2000/svg" xmlns:xlink="http://www.w3.org/1999/xlink">
    <!-- Generator: Sketch 40.3 (33839) - http://www.bohemiancoding.com/sketch -->
    <title>Artboard</title>
    <desc>Created with Sketch.</desc>
    <defs></defs>
    <g id="Page-1" stroke="none" stroke-width="1" fill="none" fill-rule="evenodd">
        <g id="Artboard">
            <g id="今日扫货" transform="translate(5.000000, 3.000000)">
                <text font-family=".PingFang-SC-Medium, PingFang SC" font-size="30" font-weight="bold" letter-spacing="2.5" fill="#222222">
                    <tspan x="35" y="32">今日扫货</tspan>
                </text>
                <rect id="Rectangle-11" fill="#222222" x="0" y="43" width="200" height="3"></rect>
                <text id="New-Arrival" font-family="AvenirNextCondensed-DemiBold, Avenir Next Condensed" font-size="24" font-style="condensed" font-weight="500" fill="#222222">
                    <tspan x="48.396" y="76">New Arrival</tspan>
                </text>
                <g id="Group-9" transform="translate(35.000000, 91.000000)">
                    <path d="M116.000033,32.0000669 C124.282923,32.0000669 131,25.2851651 131,17.0000335 C131,8.71490185 124.282856,2 116.000033,2 C107.714902,2 101,8.71480144 101,17.0000335 C100.999967,25.2851651 107.714868,32.0000669 116.000033,32.0000669 L116.000033,32.0000669 Z M116.000033,3.87499163 C123.249289,3.87499163 129.125075,9.75077758 129.125075,17.0000335 C129.125075,24.2492894 123.250427,30.1273511 116.000033,30.1273511 C108.74964,30.1273511 102.873854,24.2492894 102.873854,17.0000335 C102.873954,9.75081105 108.750845,3.87499163 116.000033,3.87499163 L116.000033,3.87499163 Z M111.748495,25.0015886 C112.114069,25.3696055 112.707059,25.3696055 113.072733,25.0015886 L120.250401,17.8249254 C120.475474,17.597609 120.545724,17.2905713 120.494217,17.0000335 C120.545758,16.7093617 120.474169,16.4000482 120.250434,16.1750412 L113.072767,8.99613553 C112.705955,8.63049493 112.112931,8.63049493 111.748529,8.99613553 C111.380612,9.3617092 111.380612,9.95700892 111.748529,10.322683 L118.423536,17.0000669 L111.748529,23.6750746 C111.380579,24.0429911 111.380579,24.635948 111.748529,25.0016221 L111.748495,25.0015886 Z" id="Shape" fill="#000000"></path>
                    <text id="查看全部" font-family=".PingFang-SC-Light, PingFang SC" font-size="24" font-weight="normal" fill="#222222">
                        <tspan x="0" y="25">查看全部</tspan>
                    </text>
                </g>
            </g>
        </g>
    </g>
</svg>